<!--
canvas: 512x512
stroke: 30
gap between rings: 30
circle gap: 30
-->

<svg
  xmlns="http://www.w3.org/2000/svg"
  xmlns:svg="http://www.w3.org/2000/svg"
  width="512"
  height="512"
  viewBox="0 0 135.5 135.5"
  version="1.1"
  fill="none"
  role="img"
  color="oklch(59.6% 0.145 163.225)"
>
  <g
    stroke="currentColor"
    stroke-width="30"
    stroke-linecap="round"
    stroke-linejoin="round"
  >
    <g>
      <path
        id="outer"
        stroke-width="8"
        d="M 19.453924,95.384362 A 55.592915,55.592915 0 0 1 28.288674,28.277779 55.592915,55.592915 0 0 1 95.395258,19.44303 55.592915,55.592915 0 0 1 121.29743,81.97641 55.592915,55.592915 0 0 1 67.598801,123.18082"
      />
    </g>

    <g>
      <path
        id="middle"
        stroke-width="8"
        d="M 67.4711,28.049271 A 39.421829,39.421829 0 0 1 105.54966,57.26798 39.421829,39.421829 0 0 1 87.182015,101.61141 39.421829,39.421829 0 0 1 39.595658,95.346543 39.421829,39.421829 0 0 1 33.330794,47.760186"
      />
    </g>

    <g>
      <path
        id="inner"
        stroke-width="8"
        d="M 88.138423,79.421013 A 23.816406,23.816406 0 0 1 61.34867,90.517692 23.816406,23.816406 0 0 1 43.696404,67.51281 23.816406,23.816406 0 0 1 61.34867,44.507928 23.816406,23.816406 0 0 1 88.138422,55.604606"
      />
    </g>
  </g>
</svg>
